# xmcd
#
# Track frame offsets: 
#        150
#        22822
#        37315
#        53552
#        75025
#        91732
#        106380
#        118985
#        138895
#        154142
#        170975
#        186000
#        201055
#        215927
#        228397
#
# Disc length: 3215 seconds
#
# Revision: 0
# Processed by: cddbd v1.5.2PL0 Copyright (c) Steve Scherf et al.
# Submitted via: ExactAudioCopy v0.99pb1
#
DISCID=c70c8d0f
DTITLE=Shadows - It Ain't Easy Bein' Sleazy
DYEAR=1993
DGENRE=Blues
TTITLE0=Leavin' Town
TTITLE1=Just To Be With You
TTITLE2=Drivin' Me Crazy
TTITLE3=Leave Your Radio On
TTITLE4=Wintertime Blues
TTITLE5=Poison Girl
TTITLE6=Big Leg Mama
TTITLE7=Better Find Somebody
TTITLE8=The Fire Below
TTITLE9=Bloodstains
TTITLE10=Ice Cream Man
TTITLE11=Don't Leave Me Out
TTITLE12=Hard Times
TTITLE13=Lightning Bug Blues
TTITLE14=The Fire Below
EXTD=\nJWB \nJuly 07\n\n
EXTT0=
EXTT1=
EXTT2=
EXTT3=
EXTT4=
EXTT5=
EXTT6=
EXTT7=
EXTT8=
EXTT9=
EXTT10=
EXTT11=
EXTT12=
EXTT13=
EXTT14=
PLAYORDER=
